<svg width="15" height="15" viewBox="0 0 15 15" fill="none" xmlns="http://www.w3.org/2000/svg">
<circle cx="7.49377" cy="7.11114" r="7.11114" fill="#FF8080"/>
<path d="M8.23716 7.52247L6.45581 9.28765H9.86412V10.6667H4.19944V9.42004L6.94271 6.71711C7.0773 6.59208 7.27523 6.39717 7.5365 6.1324C7.93235 5.6911 8.13028 5.2829 8.13028 4.9078C8.13028 4.57683 8.00756 4.30838 7.76213 4.10244C7.5167 3.88915 7.20398 3.7825 6.82396 3.7825C6.18267 3.7825 5.51368 4.08405 4.81697 4.68716L3.93817 3.60599C4.82489 2.78224 5.8264 2.37036 6.94271 2.37036C7.75817 2.37036 8.43509 2.60204 8.97345 3.0654C9.5039 3.52876 9.76912 4.12451 9.76912 4.85264C9.76912 5.61755 9.25847 6.5075 8.23716 7.52247Z" fill="white"/>
</svg>
